<?xml version="1.0" encoding="utf-8"?>
<svg version="1.1" xmlns:xlink="http://www.w3.org/1999/xlink" width="62px" height="57px" xmlns="http://www.w3.org/2000/svg">
  <defs>
    <linearGradient gradientUnits="userSpaceOnUse" x1="31" y1="0" x2="31" y2="32.3272490221642" id="LinearGradient49">
      <stop id="Stop50" stop-color="#ffff80" offset="0" />
      <stop id="Stop51" stop-color="#95f204" offset="0.77" />
      <stop id="Stop52" stop-color="#81d3f8" offset="1" />
    </linearGradient>
  </defs>
  <g transform="matrix(1 0 0 1 -1086 -1090 )">
    <path d="M 58.8367346938776 11.392578125  C 59.7795118047219 11.763671875  60.5114045618247 12.2955729166667  61.0324129651861 12.98828125  C 62.0248099239696 14.3984375  62.2480992396959 15.994140625  61.7022809123649 17.775390625  L 51.46818727491 51.396484375  C 50.9967987194878 52.9798177083333  50.0478191276511 54.3095703125  48.6212484993998 55.3857421875  C 47.1946778711485 56.4619140625  45.6750700280112 57  44.062424969988 57  L 9.71308523409364 57  C 7.80272108843537 57  5.96058423369348 56.3382161458333  4.18667466986795 55.0146484375  C 2.41276510604242 53.6910807291667  1.17847138855542 52.064453125  0.483793517406963 50.134765625  C -0.111644657863145 48.4772135416667  -0.136454581832733 46.90625  0.409363745498199 45.421875  C 0.409363745498199 45.3229166666667  0.446578631452581 44.9889322916667  0.521008403361344 44.419921875  C 0.595438175270108 43.8509114583333  0.645058023209284 43.3932291666667  0.669867947178872 43.046875  C 0.694677871148459 42.8489583333333  0.657462985194078 42.5830078125  0.558223289315726 42.2490234375  C 0.458983593437375 41.9150390625  0.421768707482993 41.673828125  0.446578631452581 41.525390625  C 0.496198479391757 41.2532552083333  0.595438175270108 40.9934895833333  0.744297719087635 40.74609375  C 0.893157262905162 40.4986979166667  1.09783913565426 40.2080078125  1.35834333733493 39.8740234375  C 1.61884753901561 39.5400390625  1.82352941176471 39.2493489583333  1.97238895558223 39.001953125  C 2.54301720688275 38.0618489583333  3.10124049619848 36.9300130208333  3.64705882352941 35.6064453125  C 4.19287715086034 34.2828776041667  4.56502601040416 33.1510416666667  4.76350540216086 32.2109375  C 4.83793517406963 31.9635416666667  4.84413765506203 31.5924479166667  4.78211284513806 31.09765625  C 4.72008803521409 30.6028645833333  4.71388555422169 30.2565104166667  4.76350540216086 30.05859375  C 4.83793517406963 29.7864583333333  5.04881952781113 29.4401041666667  5.39615846338535 29.01953125  C 5.74349739895958 28.5989583333333  5.95438175270108 28.314453125  6.02881152460984 28.166015625  C 6.54981992797119 27.275390625  7.07082833133253 26.1373697916667  7.59183673469388 24.751953125  C 8.11284513805522 23.3665364583333  8.42296918767507 22.2532552083333  8.52220888355342 21.412109375  C 8.54701880752301 21.189453125  8.51600640256102 20.7936197916667  8.42917166866747 20.224609375  C 8.34233693477391 19.6555989583333  8.34853941576631 19.3092447916667  8.44777911164466 19.185546875  C 8.54701880752301 18.8639322916667  8.81992797118848 18.4866536458333  9.26650660264106 18.0537109375  C 9.71308523409364 17.6207682291667  9.9859943977591 17.3424479166667  10.0852340936375 17.21875  C 10.5566226490596 16.5755208333333  11.0838335334134 15.5302734375  11.6668667466987 14.0830078125  C 12.249899959984 12.6357421875  12.5910364145658 11.4420572916667  12.6902761104442 10.501953125  C 12.7150860344138 10.3040364583333  12.6778711484594 9.98860677083333  12.578631452581 9.5556640625  C 12.4793917567027 9.12272135416666  12.4545818327331 8.794921875  12.5042016806723 8.572265625  C 12.5538215286114 8.37434895833333  12.6654661864746 8.15169270833333  12.8391356542617 7.904296875  C 13.0128051220488 7.65690104166667  13.2360944377751 7.37239583333333  13.5090036014406 7.05078125  C 13.781912765106 6.72916666666666  13.9927971188475 6.46940104166666  14.1416566626651 6.271484375  C 14.3401360544218 5.974609375  14.5448179271709 5.59733072916667  14.7557022809124 5.1396484375  C 14.9665866346539 4.68196614583333  15.1526610644258 4.2490234375  15.3139255702281 3.8408203125  C 15.4751900760304 3.4326171875  15.6736694677871 2.9873046875  15.9093637454982 2.5048828125  C 16.1450580232093 2.0224609375  16.3869547819128 1.62662760416666  16.6350540216086 1.3173828125  C 16.8831532613045 1.00813802083333  17.2118847539016 0.717447916666662  17.6212484993998 0.4453125  C 18.030612244898 0.173177083333326  18.4771908763505 0.030924479166666  18.9609843937575 0.0185546875000021  C 19.4447779111645 0.0061848958333256  20.0340136054422 0.0742187500000021  20.7286914765906 0.22265625  L 20.6914765906363 0.333984375  C 21.6342537014806 0.111328125  22.2669067627051 0  22.5894357743097 0  L 50.9099639855942 0  C 52.7458983593437 0  54.1600640256102 0.692708333333328  55.1524609843938 2.078125  C 56.1448579431773 3.46354166666666  56.3681472589036 5.07161458333333  55.8223289315726 6.90234375  L 45.625450180072 40.5234375  C 44.7322929171669 43.4674479166667  43.8453381352541 45.3662109375  42.9645858343337 46.2197265625  C 42.0838335334134 47.0732421875  40.4897959183673 47.5  38.1824729891957 47  L 5.84273709483794 47  C 5.17286914765906 47.5  4.7014805922369 47.685546875  4.42857142857143 48.056640625  C 4.15566226490596 48.4524739583333  4.14325730292117 48.984375  4.39135654261705 49.65234375  C 4.98679471788715 51.3841145833333  6.77310924369748 52.25  9.75030012004802 52  L 44.0996398559424 52  C 44.8191276510604 52.25  45.5138055222089 52.0582682291667  46.1836734693878 51.6748046875  C 46.8535414165666 51.2913411458333  47.2877150860344 50.7779947916667  47.4861944777911 50.134765625  L 58.6506602641056 13.5078125  C 58.8243297318928 12.9635416666667  58.8863545418167 12.2584635416667  58.8367346938776 11.392578125  Z M 22.2172869147659 10.6875  L 21.4357743097239 13.0625  C 21.3365346138455 13.3841145833333  21.3613445378151 13.6624348958333  21.5102040816327 13.8974609375  C 21.6590636254502 14.1324869791667  21.9071628651461 14.25  22.2545018007203 15  L 44.8811524609844 15  C 45.203681472589 14.25  45.5200080032013 14.1324869791667  45.8301320528211 13.8974609375  C 46.140256102441 13.6624348958333  46.3449379751901 13.3841145833333  46.4441776710684 13.0625  L 47.2256902761104 10.6875  C 47.3249299719888 10.3658854166667  47.3001200480192 10.0875651041667  47.1512605042017 9.8525390625  C 47.0024009603842 9.61751302083333  46.7543017206883 9.5  46.406962785114 10  L 23.7803121248499 10  C 23.4577831132453 9.5  23.1414565826331 9.61751302083333  22.8313325330132 9.8525390625  C 22.5212084833934 10.0875651041667  22.3165266106443 10.3658854166667  22.2172869147659 10.6875  Z M 19.1284513805522 20.1875  L 18.3469387755102 22.5625  C 18.2476990796319 22.8841145833333  18.2725090036014 23.1624348958333  18.421368547419 23.3974609375  C 18.5702280912365 23.6324869791667  18.8183273309324 23.75  19.1656662665066 24  L 41.7923169267707 24  C 42.1148459383754 23.75  42.4311724689876 23.6324869791667  42.7412965186074 23.3974609375  C 43.0514205682273 23.1624348958333  43.2561024409764 22.8841145833333  43.3553421368547 22.5625  L 44.1368547418968 20.1875  C 44.2360944377751 19.8658854166667  44.2112845138055 19.5875651041667  44.062424969988 19.3525390625  C 43.9135654261705 19.1175130208333  43.6654661864746 19  43.3181272509004 19  L 20.6914765906363 19  C 20.3689475790316 19  20.0526210484194 19.1175130208333  19.7424969987995 19.3525390625  C 19.4323729491797 19.5875651041667  19.2276910764306 19.8658854166667  19.1284513805522 20.1875  Z " fill-rule="nonzero" fill="url(#LinearGradient49)" stroke="none" transform="matrix(1 0 0 1 1086 1090 )" />
  </g>
</svg>