<?xml version="1.0" encoding="utf-8"?>
<svg version="1.1" xmlns:xlink="http://www.w3.org/1999/xlink" width="106px" height="100px" xmlns="http://www.w3.org/2000/svg">
  <g transform="matrix(1 0 0 1 -1398 -1267 )">
    <path d="M 1398 1267  L 1504 1267  L 1504 1367  L 1398 1367  L 1398 1267  " fill-rule="nonzero" fill="#cccccc" stroke="none" />
    <path d="M 1405 1274  L 1497 1274  L 1497 1360  L 1405 1360  L 1405 1274  " fill-rule="nonzero" fill="#ffffff" stroke="none" />
    <path d="M 1460.62 1297  C 1456.42 1297  1453.12 1293.7  1453.12 1289.5  C 1453.12 1285.3  1456.42 1282  1460.62 1282  C 1464.82 1282  1468.12 1285.3  1468.12 1289.5  C 1468.12 1293.7  1464.82 1297  1460.62 1297  " fill-rule="nonzero" fill="#cccccc" stroke="none" />
    <path d="M 1408 1358  L 1408 1313.45  L 1429.75 1293.2  L 1460.2 1312.15094339623  L 1477.6 1305.35  L 1495 1312.15094339623  L 1495 1358  L 1408 1358  " fill-rule="nonzero" fill="#169bd5" stroke="none" />
  </g>
</svg>