<?xml version="1.0" encoding="utf-8"?>
<svg version="1.1" xmlns:xlink="http://www.w3.org/1999/xlink" width="62px" height="41px" xmlns="http://www.w3.org/2000/svg">
  <defs>
    <linearGradient gradientUnits="userSpaceOnUse" x1="31" y1="0" x2="31" y2="23.2529335071707" id="LinearGradient41">
      <stop id="Stop42" stop-color="#ffff80" offset="0" />
      <stop id="Stop43" stop-color="#95f204" offset="0.77" />
      <stop id="Stop44" stop-color="#81d3f8" offset="1" />
    </linearGradient>
  </defs>
  <g transform="matrix(1 0 0 1 -770 -1108 )">
    <path d="M 32.2916666666667 23.7298177083333  L 47.7378472222222 18.8984375  L 48.2222222222222 27.3333333333333  C 48.2939814814815 28.5611979166667  47.5584490740741 29.7000868055556  46.015625 30.75  C 44.4728009259259 31.7999131944444  42.3648726851852 32.6318359375  39.6918402777778 33.2457682291667  C 37.0188078703704 33.8597005208333  34.1215277777778 34.1666666666667  31 34.1666666666667  C 27.8784722222222 34.1666666666667  24.9811921296296 33.8597005208333  22.3081597222222 33.2457682291667  C 19.6351273148148 32.6318359375  17.5271990740741 31.7999131944444  15.984375 30.75  C 14.4415509259259 29.7000868055556  13.7060185185185 28.5611979166667  13.7777777777778 27.3333333333333  L 14.2621527777778 18.8984375  L 29.7083333333333 23.7298177083333  C 30.1030092592593 23.8543836805556  30.5335648148148 23.9166666666667  31 23.9166666666667  C 31.4664351851852 23.9166666666667  31.8969907407407 23.8543836805556  32.2916666666667 23.7298177083333  Z M 61.4079861111111 9.42252604166667  C 61.802662037037 9.56488715277778  62 9.84071180555555  62 10.25  C 62 10.6592881944444  61.802662037037 10.9351128472222  61.4079861111111 11.0774739583333  L 31.2690972222222 20.4733072916667  C 31.197337962963 20.4911024305556  31.1076388888889 20.5  31 20.5  C 30.8923611111111 20.5  30.802662037037 20.4911024305556  30.7309027777778 20.4733072916667  L 13.1857638888889 14.974609375  C 12.4143518518519 15.5796440972222  11.7774884259259 16.5717230902778  11.2751736111111 17.9508463541667  C 10.7728587962963 19.3299696180556  10.4678819444444 20.9181857638889  10.3602430555556 22.7154947916667  C 11.4904513888889 23.3561197916667  12.0555555555556 24.3259548611111  12.0555555555556 25.625  C 12.0555555555556 26.8528645833333  11.5353009259259 27.8049045138889  10.4947916666667 28.4811197916667  L 12.0555555555556 40.0390625  C 12.0914351851852 40.2881944444444  12.0196759259259 40.5106336805556  11.8402777777778 40.7063802083333  C 11.6788194444444 40.9021267361111  11.4635416666667 41  11.1944444444444 41  L 6.02777777777778 41  C 5.75868055555556 41  5.54340277777778 40.9021267361111  5.38194444444444 40.7063802083333  C 5.2025462962963 40.5106336805556  5.13078703703704 40.2881944444444  5.16666666666667 40.0390625  L 6.72743055555556 28.4811197916667  C 5.6869212962963 27.8049045138889  5.16666666666667 26.8528645833333  5.16666666666667 25.625  C 5.16666666666667 24.3259548611111  5.74971064814815 23.3383246527778  6.91579861111111 22.662109375  C 7.11313657407408 18.978515625  7.9921875 16.0423177083333  9.55295138888889 13.853515625  L 0.592013888888889 11.0774739583333  C 0.197337962962963 10.9351128472222  0 10.6592881944444  0 10.25  C 0 9.84071180555555  0.197337962962963 9.56488715277778  0.592013888888889 9.42252604166667  L 30.7309027777778 0.0266927083333318  C 30.802662037037 0.00889756944444242  30.8923611111111 0  31 0  C 31.1076388888889 0  31.197337962963 0.00889756944444242  31.2690972222222 0.0266927083333318  L 61.4079861111111 9.42252604166667  Z " fill-rule="nonzero" fill="url(#LinearGradient41)" stroke="none" transform="matrix(1 0 0 1 770 1108 )" />
  </g>
</svg>