<?xml version="1.0" encoding="utf-8"?>
<svg version="1.1" xmlns:xlink="http://www.w3.org/1999/xlink" width="62px" height="59px" xmlns="http://www.w3.org/2000/svg">
  <defs>
    <linearGradient gradientUnits="userSpaceOnUse" x1="31" y1="0" x2="31" y2="33.4615384615384" id="LinearGradient37">
      <stop id="Stop38" stop-color="#ffff80" offset="0" />
      <stop id="Stop39" stop-color="#95f204" offset="0.77" />
      <stop id="Stop40" stop-color="#81d3f8" offset="1" />
    </linearGradient>
  </defs>
  <g transform="matrix(1 0 0 1 -433 -1099 )">
    <path d="M 0 12.6428571428571  L 31 0  L 62 12.6428571428571  L 62 16.8571428571429  L 57.8666666666667 16.8571428571429  C 57.8666666666667 17.4278273809524  57.6460069444445 17.9216889880952  57.2046875 18.3387276785714  C 56.7633680555556 18.7557663690476  56.2413194444445 18.9642857142857  55.6385416666666 19  L 28.5555555555555 19  L 6.36145833333336 19  C 5.75868055555554 18.9642857142857  5.23663194444447 18.7557663690476  4.79531250000002 18.3387276785714  C 4.35399305555558 17.9216889880952  4.13333333333333 17.4278273809524  4.13333333333333 16.8571428571429  L 0 16.8571428571429  L 0 12.6428571428571  Z M 9 46.3571428571429  L 9 21.0714285714286  L 17 21.0714285714286  L 17 46.3571428571429  L 21 46.3571428571429  L 21 21.0714285714286  L 28.5555555555555 21.0714285714286  L 29 21.0714285714286  L 29 46.3571428571429  L 33 46.3571428571429  L 33 21.0714285714286  L 41 21.0714285714286  L 41 46.3571428571429  L 45 46.3571428571429  L 45 21.0714285714286  L 53 21.0714285714286  L 53 46.3571428571429  L 55.6385416666666 46.3571428571429  C 56.2413194444445 46.3571428571429  56.7633680555556 46.565662202381  57.2046875 46.9827008928571  C 57.6460069444445 47.3997395833334  57.8666666666667 47.8936011904761  57.8666666666667 48.4642857142857  L 57.8666666666667 50  L 4.13333333333333 50  L 4.13333333333333 48.4642857142857  C 4.13333333333333 47.8936011904761  4.35399305555558 47.3997395833334  4.79531250000002 46.9827008928571  C 5.23663194444447 46.565662202381  5.75868055555554 46.3571428571429  6.36145833333336 46.3571428571429  L 9 46.3571428571429  Z M 2.22812499999998 52  L 59.771875 52  C 60.3746527777778 52.6785714285714  60.8967013888889 52.8870907738095  61.3380208333334 53.3041294642857  C 61.7793402777778 53.7211681547619  62 54.2150297619048  62 54.7857142857143  L 62 59  L 0 59  L 0 54.7857142857143  C 0 54.2150297619048  0.220659722222194 53.7211681547619  0.66197916666664 53.3041294642857  C 1.10329861111109 52.8870907738095  1.62534722222222 52.6785714285714  2.22812499999998 52  Z " fill-rule="nonzero" fill="url(#LinearGradient37)" stroke="none" transform="matrix(1 0 0 1 433 1099 )" />
  </g>
</svg>